<svg width="190" height="118" viewBox="0 0 190 118" fill="none" xmlns="http://www.w3.org/2000/svg">
<path d="M55.4773 51H0.914841V0.585938H55.4773C59.7664 0.585938 63.8914 0.9375 67.8523 1.64062C71.8133 2.34375 75.4812 3.39844 78.8562 4.80469C82.2547 6.21094 85.2078 7.91016 87.7156 9.90234C90.2234 11.8945 92.1805 14.25 93.5867 16.9688C94.993 19.6875 95.6844 22.6289 95.6609 25.793C95.6844 28.9336 94.9812 31.8633 93.5516 34.582C92.1219 37.3008 90.1414 39.6562 87.6102 41.6484C85.1023 43.6172 82.1609 45.3164 78.7859 46.7461C75.4109 48.1758 71.743 49.2422 67.782 49.9453C63.8211 50.6484 59.7195 51 55.4773 51ZM59.1687 15H22.5008V36.5859H59.1687C61.2547 36.5859 63.1062 36.2344 64.7234 35.5312C66.3406 34.8047 67.6648 33.6211 68.6961 31.9805C69.7273 30.3164 70.243 28.2773 70.243 25.8633C70.243 23.4492 69.7156 21.4102 68.6609 19.7461C67.6297 18.0586 66.2937 16.8516 64.6531 16.125C63.0359 15.375 61.2078 15 59.1687 15ZM189.226 0.585938V21.2578C189.226 25.2422 188.64 28.8633 187.468 32.1211C186.32 35.3789 184.667 38.2031 182.511 40.5938C180.378 42.9609 177.753 45 174.636 46.7109C171.519 48.3984 168.015 49.7109 164.124 50.6484C160.234 51.5625 155.956 52.1602 151.292 52.4414C146.652 52.7461 141.73 52.7109 136.527 52.3359C131.347 51.9844 125.874 51.3281 120.109 50.3672V32.3672C124.351 33.1172 128.206 33.7148 131.675 34.1602C135.144 34.582 138.542 34.8516 141.87 34.9688C145.222 35.0859 148.175 34.9922 150.73 34.6875C153.284 34.3594 155.64 33.7969 157.796 33C159.976 32.1797 161.769 31.1016 163.175 29.7656C164.581 28.4062 165.671 26.7188 166.445 24.7031C167.241 22.6875 167.64 20.3438 167.64 17.6719V15H140.78V0.585938H189.226ZM0.212502 94.25V71.1875H19.4V91.0312C19.4 93.3229 20.0146 95.3333 21.2438 97.0625C22.4938 98.7708 24.1708 100.104 26.275 101.062C28.4 102.021 30.6917 102.729 33.15 103.188C35.6083 103.625 38.2438 103.844 41.0563 103.844C43.2646 103.844 45.3688 103.708 47.3688 103.438C49.3896 103.167 51.3479 102.719 53.2438 102.094C55.1396 101.448 56.775 100.646 58.15 99.6875C59.525 98.7292 60.6188 97.5104 61.4313 96.0312C62.2646 94.5521 62.6813 92.8854 62.6813 91.0312V71.1875H81.8688V94.25C81.8896 97.5 81.0771 100.479 79.4313 103.188C77.8063 105.875 75.6396 108.125 72.9313 109.938C70.2438 111.729 67.1188 113.25 63.5563 114.5C59.9938 115.729 56.3167 116.615 52.525 117.156C48.7542 117.698 44.9313 117.948 41.0563 117.906C38.3271 117.927 35.5979 117.802 32.8688 117.531C30.1396 117.281 27.4208 116.854 24.7125 116.25C22.025 115.646 19.4729 114.896 17.0563 114C14.6396 113.104 12.4 112 10.3375 110.688C8.275 109.375 6.49375 107.927 4.99375 106.344C3.49375 104.76 2.31667 102.938 1.4625 100.875C0.629168 98.7917 0.212502 96.5833 0.212502 94.25ZM173.787 100H126.162V116H106.975V71.1875H173.787C176.35 71.1875 178.673 71.6042 180.756 72.4375C182.84 73.25 184.517 74.3333 185.787 75.6875C187.079 77.0417 188.069 78.5833 188.756 80.3125C189.444 82.0417 189.787 83.8021 189.787 85.5938C189.787 87.3854 189.444 89.1458 188.756 90.875C188.069 92.6042 187.079 94.1458 185.787 95.5C184.517 96.8542 182.84 97.9479 180.756 98.7812C178.673 99.5938 176.35 100 173.787 100ZM126.162 87.1875H171.162C171.642 87.1875 172.017 87.0208 172.287 86.6875C172.558 86.3542 172.683 85.9896 172.662 85.5938C172.662 85.1979 172.527 84.8333 172.256 84.5C171.985 84.1667 171.621 84 171.162 84H126.162V87.1875Z" fill="black"/>
</svg>
